<svg height="511pt" viewBox="-71 1 511 511.99999" width="511pt" xmlns="http://www.w3.org/2000/svg"><path d="m8.007812 54.128906v403.40625c0 25.933594 79.304688 46.957032 177.128907 46.957032s177.128906-21.023438 177.128906-46.957032v-403.40625c0 55.96875-354.257813 55.976563-354.257813 0zm0 0" fill="#ffc964"/><path d="m28.023438 467.152344v-392.417969c-12.78125-5.855469-20.015626-12.777344-20.015626-20.605469v403.40625c0 9.960938 11.714844 19.199219 31.675782 26.800782-7.527344-5.335938-11.660156-11.128907-11.660156-17.183594zm0 0" fill="#f3a334"/><path d="m185.136719 196.785156c-97.824219 0-177.128907-21.027344-177.128907-46.960937v212.015625c0 25.933594 79.304688 46.957031 177.128907 46.957031s177.128906-21.023437 177.128906-46.957031v-212.015625c0 25.933593-79.304687 46.960937-177.128906 46.960937zm0 0" fill="#f45858"/><path d="m28.023438 383.535156v-212.011718c-12.78125-6.492188-20.015626-13.871094-20.015626-21.699219v212.011719c0 7.832031 7.234376 15.210937 20.015626 21.699218zm0 0" fill="#e84949"/><path d="m185.136719 367.039062c-97.824219 0-177.128907-21.027343-177.128907-46.960937v41.761719c0 25.933594 79.304688 46.957031 177.128907 46.957031s177.128906-21.023437 177.128906-46.957031v-41.761719c0 25.933594-79.304687 46.960937-177.128906 46.960937zm0 0" fill="#e84949"/><path d="m28.023438 383.535156v-41.757812c-12.78125-6.492188-20.015626-13.871094-20.015626-21.699219v41.761719c0 7.824218 7.234376 15.207031 20.015626 21.695312zm0 0" fill="#dd4040"/><path d="m269.578125 255.882812c-6.714844 3.894532-12.789063 8.511719-18.058594 13.726563-1.675781 1.65625-4.351562 1.660156-6.027343 0-40.566407-40.148437-115.574219-35.574219-148.984376 8.851563-1.179687 1.566406-1.179687 3.699218 0 5.265624 33.449219 44.480469 108.464844 48.957032 148.984376 8.851563 1.675781-1.660156 4.351562-1.65625 6.027343 0 5.578125 5.519531 12.058594 10.367187 19.238281 14.402344 1.738282.972656 3.890626-.273438 3.890626-2.265625v-45.882813c0-2.597656-2.824219-4.253906-5.070313-2.949219zm0 0" fill="#ffc964"/><path d="m270.757812 286.964844c-7.179687-4.03125-13.660156-8.882813-19.238281-14.402344-1.675781-1.65625-4.351562-1.660156-6.027343 0-38.152344 37.765625-106.886719 35.996094-142.710938-1.476562-2.21875 2.324218-4.320312 4.777343-6.273438 7.371093-1.179687 1.570313-1.179687 3.703125 0 5.269531 33.453126 44.480469 108.464844 48.953126 148.984376 8.847657 1.675781-1.65625 4.351562-1.65625 6.027343.003906 5.578125 5.519531 12.058594 10.367187 19.238281 14.398437 1.738282.976563 3.890626-.269531 3.890626-2.261718v-20.015625c0 1.992187-2.152344 3.238281-3.890626 2.265625zm0 0" fill="#f3a334"/><path d="m96.507812 278.460938c-1.179687 1.566406-1.179687 3.699218 0 5.265624 8.839844 11.757813 21.332032 21.355469 36.105469 27.746094 7.253907-8.042968 11.671875-18.695312 11.671875-30.378906s-4.417968-22.335938-11.671875-30.378906c-14.773437 6.386718-27.265625 15.988281-36.105469 27.746094zm0 0" fill="#f3a334"/><path d="m132.613281 311.472656c4.234375-4.695312 7.492188-10.28125 9.480469-16.441406-14.910156-4.710938-28.574219-12.71875-39.296875-23.925781-.175781.183593-.355469.367187-.53125.554687-.855469.910156-1.699219 1.828125-2.511719 2.78125-.179687.207032-.355468.417969-.53125.628906-.929687 1.105469-1.84375 2.230469-2.714844 3.390626-1.179687 1.566406-1.179687 3.699218 0 5.265624 0 .003907.003907.003907.003907.007813.550781.730469 1.113281 1.453125 1.691406 2.167969.011719.011718.019531.019531.027344.03125 8.707031 10.75 20.542969 19.554687 34.382812 25.539062zm0 0" fill="#ee911c"/><path d="m362.265625 54.128906c0-25.9375-79.304687-46.960937-177.128906-46.960937s-177.128907 21.023437-177.128907 46.960937c0 25.933594 79.304688 46.957032 177.128907 46.957032s177.128906-21.023438 177.128906-46.957032zm0 0" fill="#e4e3e1"/><path d="m330.992188 50.5c-61.183594-29.078125-229.066407-29.773438-291.710938 0-3.054688 1.453125-3.054688 5.804688 0 7.253906 62.753906 29.820313 230.566406 29.058594 291.710938 0 3.054687-1.449218 3.054687-5.800781 0-7.253906zm0 0" fill="#d1d0cf"/><path d="m28.023438 54.128906c0-25.046875 73.953124-45.507812 167.121093-46.882812-102.132812-1.507813-187.136719 20.019531-187.136719 46.882812 0 25.933594 79.304688 46.957032 177.128907 46.957032 3.359375 0 6.695312-.027344 10.007812-.074219-93.167969-1.375-167.121093-21.839844-167.121093-46.882813zm0 0" fill="#d1d0cf"/><path d="m59.292969 57.753906c-3.050781-1.449218-3.050781-5.800781 0-7.253906 29.300781-13.921875 81.613281-21.183594 135.265625-21.992188-60.316406-.886718-122.34375 6.339844-155.277344 21.992188-3.054688 1.453125-3.054688 5.804688 0 7.253906 32.976562 15.671875 94.960938 22.890625 155.238281 22.003906-53.613281-.808593-105.894531-8.0625-135.226562-22.003906zm0 0" fill="#afafaf"/><path d="m334.214844 43.890625c-64.09375-30.460937-234.070313-30.460937-298.160156 0-8.765626 4.167969-8.757813 16.648437 0 20.8125 64.089843 30.453125 234.066406 30.457031 298.160156 0 8.761718-4.167969 8.757812-16.648437 0-20.8125zm-284.367188 10.40625c62.554688-24.304687 208.019532-24.304687 270.574219 0-62.554687 24.300781-208.019531 24.300781-270.574219 0zm0 0"/><path d="m265.808594 249.558594c-6.328125 3.671875-12.136719 7.941406-17.304688 12.714844-44.472656-41.214844-122.546875-35.207032-157.957031 11.792968-.011719.015625-.027344.03125-.039063.050782-3.167968 4.207031-3.164062 10.085937 0 14.289062 35.160157 46.753906 113.246094 53.316406 157.996094 11.84375 5.515625 5.09375 11.753906 9.609375 18.578125 13.441406 6.722657 3.777344 15.070313-1.09375 15.070313-8.808594v-45.882812c0-8.375-9.117188-13.636719-16.34375-9.441406zm-135.417969 52.753906c-10.539063-5.363281-19.566406-12.546875-26.425781-21.050781 6.859375-8.503907 15.886718-15.6875 26.425781-21.046875 8.496094 12.6875 8.539063 29.339844 0 42.097656zm136.75-6.289062c-3.738281-2.621094-7.203125-5.5-10.34375-8.609376-4.574219-4.527343-12.019531-4.527343-16.585937-.003906-24.898438 24.644532-63.527344 30.832032-95.753907 20.703125 9.773438-16.5625 9.78125-37.121093 0-53.695312 32.167969-10.113281 70.824219-3.980469 95.753907 20.695312 4.570312 4.523438 12.011718 4.523438 16.585937 0 3.140625-3.105469 6.601563-5.988281 10.34375-8.609375zm0 0"/><path d="m362.261719 271.253906c4.148437 0 7.507812-3.359375 7.507812-7.503906v-209.453125c0-72.371094-369.269531-72.421875-369.269531 0v403.40625c0 72.371094 369.269531 72.421875 369.269531 0 0-11.628906 0-158.929687 0-158.929687 0-4.144532-3.359375-7.503907-7.507812-7.503907-4.144531 0-7.503907 3.359375-7.503907 7.503907v21.472656c0 15.570312-63.527343 39.457031-169.625 39.457031-105.886718 0-169.621093-23.839844-169.621093-39.457031v-147.171875c33.820312 23.25 110.789062 30.082031 151.914062 31.152343 4.117188.082032 7.589844-3.164062 7.699219-7.308593.105469-4.144531-3.164062-7.589844-7.308594-7.699219-97.578125-2.535156-152.304687-24.925781-152.304687-39.226562v-72.738282c57.140625 39.691406 276.683593 43.417969 339.246093 0v72.738282c0 14.285156-54.640624 36.6875-152.308593 39.230468-4.140625.105469-7.414063 3.554688-7.304688 7.699219.105469 4.074219 3.441407 7.308594 7.496094 7.308594.066406 0 .132813 0 .199219-.003907 41.089844-1.066406 118.109375-7.90625 151.917968-31.15625v90.679688c0 4.144531 3.359376 7.503906 7.503907 7.503906zm-7.503907 186.449219c0 15.550781-63.464843 39.453125-169.625 39.453125-105.886718 0-169.621093-23.839844-169.621093-39.453125v-72.75c60.375 41.925781 278.785156 41.984375 339.246093 0zm0-114.5c0 21.433594 1.703126 21.988281-7.3125 28.605469-31.996093 23.488281-115.519531 29.652344-162.3125 29.652344-108.558593 0-169.621093-24.707032-169.621093-39.453126v-18.804687c60.371093 41.910156 278.773437 41.976563 339.246093 0zm-37.765624-265.394531c-2.691407.828125-5.535157 1.644531-8.535157 2.4375-72.84375 19.3125-190.777343 17.390625-255.179687-2.4375-26.011719-8.007813-37.769532-17.34375-37.769532-23.511719 0-15.550781 63.464844-39.453125 169.625-39.453125 105.886719 0 169.625 23.839844 169.625 39.453125 0 6.167969-11.757812 15.507813-37.765624 23.511719zm0 0"/></svg>