<svg id="Capa_1" enable-background="new 0 0 512 512" height="512" viewBox="0 0 512 512" width="512" xmlns="http://www.w3.org/2000/svg"><g><g><path d="m365.097 361.716h-253.53c-5.502 0-9.962-4.46-9.962-9.962v-334.292c0-5.502 4.46-9.962 9.962-9.962h253.53c5.502 0 9.962 4.46 9.962 9.962v334.292c.001 5.502-4.459 9.962-9.962 9.962z" fill="#ea806f"/><path d="m375.06 17.46v334.29c0 5.51-4.46 9.97-9.96 9.97h-35.56c5.5 0 9.96-4.46 9.96-9.97v-334.29c0-5.5-4.46-9.96-9.96-9.96h35.56c5.5 0 9.96 4.46 9.96 9.96z" fill="#c4715c"/><g><path d="m391.216 302.918v191.618c0 5.499-4.463 9.962-9.962 9.962h-285.843c-5.499 0-9.962-4.463-9.962-9.962v-191.618c0-5.499 4.463-9.962 9.962-9.962h285.843c5.499-.001 9.962 4.463 9.962 9.962z" fill="#a176bd"/><path d="m250.945 504.498h-155.534c-5.499 0-9.962-4.463-9.962-9.962v-155.534z" fill="#fcd79f"/><path d="m391.216 302.918v171.504c-115.176-121.263-294.759-161.601-296.562-162l-9.205-3.009v-6.496c0-5.499 4.463-9.962 9.962-9.962h285.843c5.499 0 9.962 4.464 9.962 9.963z" fill="#915eb2"/><path d="m391.216 302.918v191.618c0 5.499-4.463 9.962-9.962 9.962h-45.757c5.499 0 9.962-4.463 9.962-9.962v-191.618c0-5.499-4.463-9.962-9.962-9.962h45.757c5.499-.001 9.962 4.463 9.962 9.962z" fill="#915eb2"/><path d="m98.902 292.956s187.55 40.966 308.24 169.304c5.821 6.19 16.211 2.68 17.138-5.767 3.517-32.027 6.03-95.264-17.112-157.098-1.452-3.88-5.182-6.439-9.325-6.439z" fill="#e6d9ed"/><path d="m424.281 456.489c-.926 8.448-11.317 11.965-17.135 5.768-8.089-8.598-16.478-16.807-25.095-24.637 2.042-34.61.508-86.903-18.7-138.229-1.454-3.875-5.18-6.436-9.325-6.436h43.815c4.145 0 7.87 2.56 9.325 6.436 23.143 61.837 20.632 125.079 17.115 157.098z" fill="#dac8e5"/></g></g><g><path d="m208.423 159h-61.259c-5.523 0-10-4.477-10-10v-97.5c0-5.523 4.477-10 10-10h61.259c5.523 0 10 4.477 10 10v97.5c0 5.523-4.477 10-10 10z" fill="#ffa792"/><path d="m218.42 51.5v97.5c0 5.52-4.47 10-10 10h-27.66c5.52 0 10-4.48 10-10v-97.5c0-5.52-4.48-10-10-10h27.66c5.53 0 10 4.48 10 10z" fill="#f69583"/><path d="m329.5 159h-61.259c-5.523 0-10-4.477-10-10v-97.5c0-5.523 4.477-10 10-10h61.259c5.523 0 10 4.477 10 10v97.5c0 5.523-4.478 10-10 10z" fill="#ffa792"/><g><path d="m339.5 51.5v97.5c0 5.52-4.48 10-10 10h-27.67c5.53 0 10-4.48 10-10v-97.5c0-5.52-4.47-10-10-10h27.67c5.52 0 10 4.48 10 10z" fill="#f69583"/></g></g><g><path d="m208.423 292.956h-61.259c-5.523 0-10-4.477-10-10v-82.456c0-5.523 4.477-10 10-10h61.259c5.523 0 10 4.477 10 10v82.456c0 5.523-4.477 10-10 10z" fill="#ffa792"/><path d="m218.42 200.5v82.46c0 5.52-4.47 10-10 10h-27.66c5.52 0 10-4.48 10-10v-82.46c0-5.52-4.48-10-10-10h27.66c5.53 0 10 4.48 10 10z" fill="#f69583"/><path d="m329.5 292.956h-61.259c-5.523 0-10-4.477-10-10v-82.456c0-5.523 4.477-10 10-10h61.259c5.523 0 10 4.477 10 10v82.456c0 5.523-4.478 10-10 10z" fill="#ffa792"/><g><path d="m339.5 200.5v82.46c0 5.52-4.48 10-10 10h-27.67c5.53 0 10-4.48 10-10v-82.46c0-5.52-4.47-10-10-10h27.67c5.52 0 10 4.48 10 10z" fill="#f69583"/></g></g><g><path d="m414.192 296.766c-2.532-6.765-9.103-11.311-16.35-11.311h-15.282v-267.993c0-9.629-7.834-17.462-17.463-17.462h-40.929c-4.143 0-7.5 3.358-7.5 7.5s3.357 7.5 7.5 7.5h40.929c1.358 0 2.463 1.104 2.463 2.462v267.993h-20.76c.118-.819.2-1.649.2-2.5v-82.455c0-9.649-7.851-17.5-17.5-17.5h-61.259c-9.649 0-17.5 7.851-17.5 17.5v82.456c0 .851.082 1.681.2 2.5h-25.217c.118-.819.2-1.649.2-2.5v-82.456c0-9.649-7.851-17.5-17.5-17.5h-61.259c-9.649 0-17.5 7.851-17.5 17.5v16.674c0 4.142 3.357 7.5 7.5 7.5s7.5-3.358 7.5-7.5v-16.674c0-1.378 1.121-2.5 2.5-2.5h61.259c1.379 0 2.5 1.122 2.5 2.5v82.456c0 1.378-1.121 2.5-2.5 2.5h-61.259c-1.379 0-2.5-1.122-2.5-2.5v-32.791c0-4.142-3.357-7.5-7.5-7.5s-7.5 3.358-7.5 7.5v32.791c0 .851.082 1.681.2 2.5h-20.759v-267.994c0-1.358 1.104-2.462 2.462-2.462h179.611c4.143 0 7.5-3.358 7.5-7.5s-3.357-7.5-7.5-7.5h-179.612c-9.629 0-17.462 7.833-17.462 17.462v268.06c-9.017.674-16.152 8.21-16.152 17.397v191.619c0 9.629 7.833 17.462 17.462 17.462h285.835c9.629 0 17.462-7.833 17.462-17.462v-30.243c.992 1.033 1.989 2.064 2.966 3.103 3.376 3.59 7.914 5.51 12.616 5.51 1.863 0 3.754-.302 5.606-.921 6.546-2.189 11.081-7.812 11.835-14.675 3.604-32.824 6.117-97.328-17.543-160.546zm-148.451-13.81v-82.456c0-1.378 1.121-2.5 2.5-2.5h61.259c1.379 0 2.5 1.122 2.5 2.5v82.456c0 1.378-1.121 2.5-2.5 2.5h-61.259c-1.379 0-2.5-1.122-2.5-2.5zm-172.788 211.582v-137.425l139.886 139.887h-137.424c-1.358 0-2.462-1.104-2.462-2.462zm323.872-38.864c-.151 1.377-1.118 1.898-1.681 2.086-.672.224-1.659.298-2.539-.639-25.718-27.347-56.455-52.873-91.36-75.869-3.456-2.278-8.109-1.322-10.389 2.137s-1.322 8.11 2.137 10.389c26.13 17.215 49.821 35.867 70.719 55.633v45.126c0 1.358-1.104 2.462-2.462 2.462h-127.45l-160.847-161.024v-33.057c0-1.358 1.104-2.463 2.462-2.463h2.647c9.028 2.084 96.775 23.213 187.254 76.142 1.19.697 2.493 1.028 3.78 1.027 2.576 0 5.086-1.329 6.48-3.714 2.092-3.575.889-8.169-2.687-10.261-52.616-30.78-104.423-51.047-141.003-63.195h245.955c1.025 0 1.95.63 2.301 1.568 22.572 60.31 20.141 122.155 16.683 153.652z"/><path d="m144.685 457.899h-21.917c-4.143 0-7.5 3.358-7.5 7.5s3.357 7.5 7.5 7.5h21.917c4.143 0 7.5-3.358 7.5-7.5s-3.357-7.5-7.5-7.5z"/><path d="m147.165 34c-9.649 0-17.5 7.851-17.5 17.5v97.5c0 9.649 7.851 17.5 17.5 17.5h61.259c9.649 0 17.5-7.851 17.5-17.5v-97.5c0-9.649-7.851-17.5-17.5-17.5zm63.758 17.5v97.5c0 1.378-1.121 2.5-2.5 2.5h-61.259c-1.379 0-2.5-1.122-2.5-2.5v-97.5c0-1.378 1.121-2.5 2.5-2.5h61.259c1.379 0 2.5 1.122 2.5 2.5z"/><path d="m250.741 51.5v97.5c0 9.649 7.851 17.5 17.5 17.5h61.259c9.649 0 17.5-7.851 17.5-17.5v-97.5c0-9.649-7.851-17.5-17.5-17.5h-61.259c-9.65 0-17.5 7.851-17.5 17.5zm81.259 0v97.5c0 1.378-1.121 2.5-2.5 2.5h-61.259c-1.379 0-2.5-1.122-2.5-2.5v-97.5c0-1.378 1.121-2.5 2.5-2.5h61.259c1.379 0 2.5 1.122 2.5 2.5z"/></g></g></svg>