<?xml version="1.0" encoding="iso-8859-1"?>
<!-- Generator: Adobe Illustrator 19.0.0, SVG Export Plug-In . SVG Version: 6.00 Build 0)  -->
<svg version="1.1" id="Capa_1" xmlns="http://www.w3.org/2000/svg" xmlns:xlink="http://www.w3.org/1999/xlink" x="0px" y="0px"
	 viewBox="0 0 512 512" style="enable-background:new 0 0 512 512;" xml:space="preserve">
<polygon style="fill:#F0ECED;" points="496.47,448.376 288.063,448.376 312.11,207.906 472.423,207.906 "/>
<polygon style="fill:#E1D8DC;" points="312.11,207.906 288.063,448.376 320.125,448.376 344.172,207.906 "/>
<path style="fill:#8BE081;" d="M472.423,207.906H312.11v-56.11c0-17.708,14.355-32.063,32.063-32.063h96.188
	c17.708,0,32.063,14.355,32.063,32.063V207.906z"/>
<path style="fill:#65D557;" d="M376.235,119.734h-32.063c-17.708,0-32.063,14.355-32.063,32.063v56.11h32.063v-56.11
	C344.172,134.089,358.527,119.734,376.235,119.734z"/>
<polygon style="fill:#F0ECED;" points="223.937,448.376 15.53,448.376 39.577,207.906 199.89,207.906 "/>
<polygon style="fill:#E1D8DC;" points="39.577,207.906 15.53,448.376 47.593,448.376 71.64,207.906 "/>
<path style="fill:#E67F5D;" d="M199.89,207.906H39.577v-56.11c0-17.708,14.355-32.063,32.063-32.063h96.188
	c17.708,0,32.063,14.355,32.063,32.063V207.906z"/>
<path style="fill:#E36D45;" d="M103.703,119.734H71.64c-17.708,0-32.063,14.355-32.063,32.063v56.11H71.64v-56.11
	C71.64,134.089,85.995,119.734,103.703,119.734z"/>
<rect x="7.515" y="480.438" style="fill:#876471;" width="496.971" height="24.047"/>
<circle cx="392.767" cy="151.796" r="7.515"/>
<path d="M384.25,351.687h16.031c9.116,0,16.532,7.417,16.532,16.532s-7.417,16.532-16.532,16.532h-40.078
	c-4.151,0-7.515,3.365-7.515,7.515s3.364,7.515,7.515,7.515h40.078c17.403,0,31.562-14.159,31.562-31.562
	s-14.159-31.562-31.562-31.562H384.25c-9.116,0-16.532-7.417-16.532-16.532s7.417-16.532,16.532-16.532h40.078
	c4.151,0,7.515-3.365,7.515-7.515s-3.364-7.515-7.515-7.515H384.25c-17.403,0-31.562,14.159-31.562,31.562
	S366.848,351.687,384.25,351.687z"/>
<circle cx="120.235" cy="151.796" r="7.515"/>
<circle cx="152.297" cy="151.296" r="7.515"/>
<circle cx="175.342" cy="176.344" r="7.515"/>
<circle cx="136.266" cy="176.344" r="7.515"/>
<circle cx="103.202" cy="176.344" r="7.515"/>
<circle cx="64.125" cy="176.344" r="7.515"/>
<circle cx="88.172" cy="151.296" r="7.515"/>
<path d="M95.687,399.781c4.15,0,7.515-3.365,7.515-7.515V351.67c0.166,0.011,0.333,0.017,0.501,0.017h32.063
	c17.403,0,31.562-14.159,31.562-31.562s-14.159-31.562-31.562-31.562H95.687c-4.15,0-7.515,3.365-7.515,7.515v96.188
	C88.172,396.416,91.537,399.781,95.687,399.781z M103.202,303.593h32.564c9.116,0,16.532,7.417,16.532,16.532
	s-7.416,16.532-16.532,16.532h-32.063c-0.168,0-0.335,0.005-0.501,0.017V303.593z"/>
<path d="M504.485,472.924h-56.611c-4.151,0-7.515,3.365-7.515,7.515s3.364,7.515,7.515,7.515h49.096v9.018H15.029v-9.018h398.278
	c4.151,0,7.515-3.365,7.515-7.515s-3.364-7.515-7.515-7.515H263.515V263.515h35.481l-18.411,184.114
	c-0.436,4.358,3.098,8.262,7.478,8.262H496.47c4.38,0,7.913-3.905,7.478-8.262l-18.411-184.114h10.933
	c4.151,0,7.515-3.365,7.515-7.515c0-4.15-3.364-7.515-7.515-7.515h-12.436l-4.096-40.955v-55.734
	c0-21.823-17.755-39.577-39.577-39.577h-96.188c-21.823,0-39.577,17.755-39.577,39.577v55.734l-4.096,40.955h-36.984V98.13
	l44.171-60.735c5.236-7.2,5.98-16.6,1.941-24.534C305.586,4.928,297.546,0,288.644,0h-65.288c-8.902,0-16.943,4.929-20.982,12.861
	c-4.04,7.933-3.296,17.334,1.94,24.533l44.171,60.736v150.356h-36.984l-4.096-40.955v-55.734c0-21.823-17.755-39.577-39.577-39.577
	H71.64c-21.823,0-39.577,17.755-39.577,39.577v55.734l-4.096,40.955H15.53c-4.15,0-7.515,3.365-7.515,7.515
	c0,4.15,3.365,7.515,7.515,7.515h10.933L8.053,447.628c-0.436,4.359,3.098,8.262,7.478,8.262h208.407
	c4.38,0,7.913-3.904,7.478-8.262l-18.411-184.114h35.481v209.409H7.515c-4.15,0-7.515,3.365-7.515,7.515v24.047
	C0,508.635,3.365,512,7.515,512h496.971c4.151,0,7.515-3.365,7.515-7.515v-24.047C512,476.288,508.636,472.924,504.485,472.924z
	 M488.166,440.861H296.366L314.1,263.515h156.331L488.166,440.861z M319.624,151.796c0-13.535,11.012-24.548,24.548-24.548h96.188
	c13.536,0,24.548,11.012,24.548,24.548v48.595H319.624V151.796z M318.91,215.421h146.713l3.306,33.065H315.603L318.91,215.421z
	 M215.767,19.681c1.483-2.913,4.32-4.652,7.59-4.652h65.288c6.831,0,10.922,7.977,6.887,13.526L256,82.911l-39.531-54.356
	C214.546,25.912,214.284,22.594,215.767,19.681z M47.092,151.796c0-13.535,11.013-24.548,24.548-24.548h96.188
	c13.535,0,24.548,11.012,24.548,24.548v48.595H47.092V151.796z M46.379,215.421H193.09l3.306,33.065H43.072L46.379,215.421z
	 M215.633,440.861H23.835l17.735-177.346H197.9L215.633,440.861z"/>
<g>
</g>
<g>
</g>
<g>
</g>
<g>
</g>
<g>
</g>
<g>
</g>
<g>
</g>
<g>
</g>
<g>
</g>
<g>
</g>
<g>
</g>
<g>
</g>
<g>
</g>
<g>
</g>
<g>
</g>
</svg>
