<svg id="Capa_1" enable-background="new 0 0 512 512" height="512" viewBox="0 0 512 512" width="512" xmlns="http://www.w3.org/2000/svg"><g><g><circle cx="256" cy="256" fill="#5766cb" r="248.44"/></g><g><path d="m404.514 56.82c30.94 41.428 49.26 92.831 49.26 148.514 0 137.21-111.23 248.44-248.44 248.44-55.683 0-107.086-18.32-148.514-49.26 45.3 60.656 117.653 99.926 199.18 99.926 137.21 0 248.44-111.23 248.44-248.44 0-81.527-39.27-153.88-99.926-199.18z" fill="#3d4fc3"/></g><g><path d="m163.148 130.466v49.611h191.466v-49.611c0-37.85-30.683-68.533-68.533-68.533h-54.4c-37.85 0-68.533 30.683-68.533 68.533z" fill="#784033"/></g><g><path d="m286.081 61.933h-54.4s0 0-.001 0c37.849 0 68.532 30.684 68.532 68.533v49.611h54.401v-49.611c.001-37.85-30.682-68.533-68.532-68.533z" fill="#61362b"/></g><g><path d="m445.428 416.728c-20.057-46.64-66.413-79.303-120.404-79.303h-138.048c-53.991 0-100.347 32.663-120.404 79.303 45.571 53.655 113.517 87.712 189.428 87.712s143.857-34.057 189.428-87.712z" fill="#ecf4ff"/></g><g><path d="m445.428 416.728c-9.806-22.804-25.911-42.251-46.11-56.188-45.529 56.831-115.5 93.234-193.984 93.234-50.601 0-97.666-15.132-136.925-41.112-.633 1.344-1.249 2.698-1.837 4.066 45.571 53.655 113.517 87.712 189.428 87.712s143.857-34.057 189.428-87.712z" fill="#ddeafb"/></g><g><path d="m348.51 202.768c-9.81 20.831-10.655 48.526 1.661 54.326s33.128-12.491 42.939-33.322c9.81-20.831 3.471-33.272-8.845-39.072-12.316-5.801-25.944-2.763-35.755 18.068z" fill="#ffcbbe"/></g><g><path d="m348.51 202.768c-9.81 20.831-10.655 48.526 1.661 54.326s33.128-12.491 42.939-33.322c9.81-20.831 3.471-33.272-8.845-39.072-12.316-5.801-25.944-2.763-35.755 18.068z" fill="#eaac9d"/></g><g><path d="m270.591 398.257h-23.42c-30.625 0-55.451-24.826-55.451-55.451v-47.868h134.322v47.868c0 30.624-24.827 55.451-55.451 55.451z" fill="#eaac9d"/></g><path d="m285.542 294.938v47.868c0 27.72-20.341 50.688-46.911 54.795 2.784.43 5.636.656 8.54.656h23.42c30.625 0 55.451-24.826 55.451-55.451v-47.868z" fill="#df9380"/><g><path d="m337.226 150.994h-156.691c-9.603 0-17.388 7.785-17.388 17.388v61.9c0 33.69 16.771 65.17 44.732 83.964l27.821 18.7c14.017 9.421 32.342 9.421 46.359 0l27.821-18.7c27.961-18.794 44.732-50.274 44.732-83.964v-61.9c.002-9.603-7.783-17.388-17.386-17.388z" fill="#ffcbbe"/></g><g><path d="m326.154 150.994v79.287c0 33.69-16.771 65.17-44.732 83.964l-27.821 18.7c-2.829 1.902-5.84 3.4-8.949 4.534 12.295 4.484 26.222 2.985 37.409-4.534l27.821-18.7c27.961-18.794 44.732-50.274 44.732-83.964v-61.9c0-9.603-7.785-17.388-17.388-17.388h-11.072z" fill="#eaac9d"/></g><g><path d="m169.251 202.768c9.81 20.831 10.655 48.526-1.661 54.326s-33.128-12.491-42.939-33.322-3.471-33.272 8.844-39.072c12.317-5.801 25.946-2.763 35.756 18.068z" fill="#ffcbbe"/></g><g><path d="m490.645 153.482c-13.685-31.282-33.209-59.139-58.028-82.8-3.022-2.88-7.808-2.767-10.688.256-2.88 3.022-2.766 7.807.256 10.688 48.168 45.921 74.695 107.847 74.695 174.374 0 55.134-18.632 105.99-49.912 146.633-22.631-41.833-65.626-69.546-113.366-72.498v-26.386c10.112-11.019 17.81-23.973 22.651-38.044 16.342-.765 34.801-19.824 43.696-38.712 10.442-22.173 5.783-40.54-12.463-49.133-8.736-4.114-17.495-4.325-25.313-.879v-46.515c0-41.958-34.135-76.094-76.093-76.094h-54.4c-41.958 0-76.093 34.135-76.093 76.094v46.515c-7.818-3.446-16.577-3.235-25.313.878-18.245 8.594-22.904 26.961-12.462 49.133 9.081 19.283 27.455 37.931 43.695 38.707 4.842 14.072 12.54 27.028 22.653 38.048v26.168c-26.473.53-51.999 8.498-73.988 23.168-3.473 2.317-4.41 7.012-2.093 10.484 1.457 2.184 3.853 3.366 6.295 3.366 1.442 0 2.899-.412 4.189-1.272 19.515-13.021 42.165-20.113 65.665-20.628 1.406 33.753 29.293 60.782 63.386 60.782h22.535c34.008 0 61.847-26.896 63.379-60.532 44.251 3.048 83.827 29.963 102.962 70.047-44.169 49.977-108.707 81.55-180.49 81.55s-136.321-31.573-180.49-81.549c5.191-10.881 11.934-20.926 20.099-29.909 2.808-3.09 2.58-7.871-.509-10.679-3.089-2.809-7.871-2.581-10.679.509-7.59 8.35-14.077 17.525-19.397 27.37-31.275-40.64-49.904-91.493-49.904-146.622 0-132.822 108.058-240.88 240.88-240.88 51.359 0 100.37 15.939 141.736 46.092 3.372 2.458 8.102 1.719 10.562-1.656 2.46-3.374 1.719-8.103-1.656-10.562-43.97-32.052-96.062-48.994-150.642-48.994-68.38 0-132.667 26.629-181.019 74.98-48.352 48.353-74.981 112.64-74.981 181.02s26.629 132.667 74.981 181.02c48.352 48.351 112.639 74.98 181.019 74.98s132.667-26.629 181.02-74.98c48.351-48.353 74.98-112.64 74.98-181.02 0-35.637-7.185-70.128-21.355-102.518zm-109.601 38.057c3.823 1.801 15.46 7.281 5.226 29.013-6.527 13.858-17.609 24.966-25.768 28.708 1.096-6.206 1.671-12.551 1.671-18.977v-34.935c5.561-6.039 11.559-7.252 18.871-3.809zm-149.363-122.047h54.4c33.621 0 60.973 27.353 60.973 60.974v14.989c-3.018-1.299-6.339-2.021-9.828-2.021h-156.691c-3.488 0-6.81.722-9.828 2.021v-14.989c0-33.62 27.353-60.974 60.974-60.974zm-100.19 151.059c-10.234-21.731 1.403-27.211 5.226-29.013 7.313-3.446 13.311-2.23 18.871 3.809v.52c0 4.176 3.385 7.56 7.56 7.56s7.56-3.384 7.56-7.56v-27.486c0-5.419 4.409-9.828 9.828-9.828h156.691c5.419 0 9.828 4.409 9.828 9.828v61.9c0 31.228-15.473 60.27-41.389 77.69l-27.822 18.7c-11.52 7.743-26.405 7.743-37.925 0l-27.821-18.7c-25.917-17.42-41.39-46.463-41.39-77.69 0-4.176-3.385-7.56-7.56-7.56s-7.56 3.384-7.56 7.56c0 6.452.579 12.821 1.684 19.05-8.127-3.692-19.225-14.859-25.781-28.78zm138.657 170.146h-22.535c-26.651 0-48.334-21.682-48.334-48.334v-24.963c2.136 1.77 29.231 19.764 32.205 21.82 8.322 5.593 17.859 8.39 27.397 8.39 9.537 0 19.075-2.797 27.396-8.39 3.105-2.146 29.956-19.973 32.205-21.82v24.963c0 26.652-21.683 48.334-48.334 48.334z"/><path d="m214.801 252.871c18.715 0 34.361-13.379 37.886-31.074h12.387c3.525 17.695 19.171 31.074 37.886 31.074 21.302 0 38.634-17.332 38.634-38.634s-17.332-38.634-38.634-38.634c-18.715 0-34.361 13.379-37.886 31.074h-12.387c-3.525-17.695-19.17-31.074-37.886-31.074-21.302 0-38.633 17.332-38.633 38.634s17.33 38.634 38.633 38.634zm88.16-62.148c12.966 0 23.514 10.548 23.514 23.514s-10.548 23.514-23.514 23.514-23.514-10.548-23.514-23.514 10.548-23.514 23.514-23.514zm-88.16 0c12.965 0 23.514 10.548 23.514 23.514s-10.548 23.514-23.514 23.514-23.514-10.548-23.514-23.514 10.548-23.514 23.514-23.514z"/><path d="m214.801 224.558c5.7 0 10.322-4.621 10.322-10.321 0-5.701-4.621-10.322-10.322-10.322-5.7 0-10.322 4.621-10.322 10.322 0 5.7 4.621 10.321 10.322 10.321z"/><path d="m302.961 224.558c5.7 0 10.322-4.621 10.322-10.321 0-5.701-4.621-10.322-10.322-10.322-5.7 0-10.322 4.621-10.322 10.322 0 5.7 4.621 10.321 10.322 10.321z"/><path d="m276.704 270.047h-35.985c-4.175 0-7.56 3.384-7.56 7.56s3.385 7.56 7.56 7.56h35.985c4.176 0 7.56-3.384 7.56-7.56s-3.384-7.56-7.56-7.56z"/></g></g></svg>