<svg id="Capa_1" enable-background="new 0 0 511 511" height="512" viewBox="0 0 511 511" width="512" xmlns="http://www.w3.org/2000/svg"><g><g id="Filled_19_"><path d="m20.5 183.5h470v290h-470z" fill="#e4e8ed"/><path d="m55.5 183.5h400v290h-400z" fill="#c4e5f9"/><path d="m55.5 443.5h400v30h-400z" fill="#a4d7f5"/><path d="m7.5 473.5h496v30h-496z" fill="#9a999d"/><path d="m220.5 186.5c0 19.33-15.67 35-35 35-19.33 0-35-15.67-35-35 0 19.33-15.67 35-35 35-19.33 0-35-15.67-35-35 0 19.33-15.67 35-35 35-19.33 0-35-15.67-35-35v-25l45-84h400l45 84v25c0 19.33-15.67 35-35 35-19.33 0-35-15.67-35-35 0 19.33-15.67 35-35 35-19.33 0-35-15.67-35-35 0 19.33-15.67 35-35 35-19.33 0-35-15.67-35-35 0 19.33-15.67 35-35 35-19.33 0-35-15.67-35-35z" fill="#c7efbc"/><path d="m465.5 191.5c-19.33 0-35-15.67-35-35 0 19.33-15.67 35-35 35-19.33 0-35-15.67-35-35 0 19.33-15.67 35-35 35-19.33 0-35-15.67-35-35 0 19.33-15.67 35-35 35-19.33 0-35-15.67-35-35 0 19.33-15.67 35-35 35-19.33 0-35-15.67-35-35 0 19.33-15.67 35-35 35-19.33 0-35-15.67-35-35 0 19.33-15.67 35-35 35-17.835 0-32.543-13.343-34.714-30.589l-.286.589v25c0 19.33 15.67 35 35 35 19.33 0 35-15.67 35-35 0 19.33 15.67 35 35 35 19.33 0 35-15.67 35-35 0 19.33 15.67 35 35 35 19.33 0 35-15.67 35-35 0 19.33 15.67 35 35 35 19.33 0 35-15.67 35-35 0 19.33 15.67 35 35 35 19.33 0 35-15.67 35-35 0 19.33 15.67 35 35 35 19.33 0 35-15.67 35-35 0 19.33 15.67 35 35 35 19.33 0 35-15.67 35-35v-25l-.283-.616c-2.158 17.259-16.873 30.616-34.717 30.616z" fill="#aae79a"/><g fill="#fff"><path d="m166.5 77.5-16 84v25c0 19.33-15.67 35-35 35-19.33 0-35-15.67-35-35v-25l26-84z"/><path d="m286.5 77.5 4 84v25c0 19.33-15.67 35-35 35-19.33 0-35-15.67-35-35v-25l6-84z"/><path d="m406.5 77.5 24 84v25c0 19.33-15.67 35-35 35-19.33 0-35-15.67-35-35v-25l-14-84z"/></g><g fill="#eaeaeb"><path d="m150.728 160.447c-.146-1.297-.228-2.612-.228-3.947 0 19.33-15.67 35-35 35-17.892 0-32.638-13.429-34.735-30.755l-.265.755v25c0 19.33 15.67 35 35 35 19.33 0 35-15.67 35-35v-25z"/><path d="m290.38 159.28c-1.418 18.029-16.487 32.22-34.88 32.22-18.263 0-33.252-13.991-34.851-31.838l-.149 1.838v25c0 19.33 15.67 35 35 35 19.33 0 35-15.67 35-35v-25z"/><path d="m430.24 160.699c-2.076 17.349-16.833 30.801-34.74 30.801-19.33 0-35-15.67-35-35 0 1.304-.077 2.59-.216 3.857l.216 1.143v25c0 19.33 15.67 35 35 35 19.33 0 35-15.67 35-35v-25z"/></g><path d="m55.5 7.5h400v70h-400z" fill="#c7efbc"/><path d="m55.5 47.5h400v30h-400z" fill="#aae79a"/></g><g id="Outline_19_"><path d="m498 466v-252.155c6.233-7.397 10-16.937 10-27.345v-26.882l-21.023-39.245-13.223 7.083 14.22 26.544h-51.817l-19.714-69h34.566l15.661 29.234 13.223-7.083-16.893-31.534v-75.617h-142.5v15h127.5v55h-385v-55h242.5v-15h-257.5v75.617l-45 84v26.883c0 10.408 3.767 19.948 10 27.345v54.655h15v-43.286c5.341 2.424 11.263 3.786 17.5 3.786.84 0 1.672-.031 2.5-.08v237.08h-20v-182.5h-15v182.5h-13v45h78.5v-15h-63.5v-15h301.5v-15h-253.5v-69h385v29h-302.5v15h302.5v25h-116.5v15h164.5v15h-402.5v15h417.5v-45zm-97.158-381 19.715 69h-53.704l-11.5-69zm22.158 84v17.5c0 15.164-12.337 27.5-27.5 27.5s-27.5-12.336-27.5-27.5v-17.5zm-82.854-84 11.5 69h-53.995l-3.286-69zm12.854 84v17.5c0 15.164-12.337 27.5-27.5 27.5s-27.5-12.336-27.5-27.5v-17.5zm-119.517-84h45.866l3.286 69h-54.08zm-5.483 84h55v17.5c0 15.164-12.337 27.5-27.5 27.5s-27.5-12.336-27.5-27.5zm-55.294-84h45.74l-4.929 69h-53.954zm-14.706 84h55v17.5c0 15.164-12.337 27.5-27.5 27.5s-27.5-12.336-27.5-27.5zm-.563-84-13.143 69h-53.621l21.357-69zm-14.437 84v17.5c0 15.164-12.337 27.5-27.5 27.5s-27.5-12.336-27.5-27.5v-17.5zm-83.009-84h36.336l-21.357 69h-51.944zm-14.491 129c-15.163 0-27.5-12.336-27.5-27.5v-17.5h55v17.5c0 15.164-12.337 27.5-27.5 27.5zm402.5 168h-385v-29h385zm0-44h-385v-29h385zm0-44h-385v-29h385zm0-44h-385v-24.786c7.079-3.213 13.127-8.304 17.5-14.643 7.673 11.121 20.497 18.429 35 18.429s27.327-7.307 35-18.429c7.673 11.121 20.497 18.429 35 18.429s27.327-7.307 35-18.429c7.673 11.121 20.497 18.429 35 18.429s27.327-7.307 35-18.429c7.673 11.121 20.497 18.429 35 18.429s27.327-7.307 35-18.429c7.673 11.121 20.497 18.429 35 18.429s27.327-7.307 35-18.429c4.373 6.339 10.421 11.43 17.5 14.643zm35 216h-20v-237.08c.828.048 1.66.08 2.5.08 6.237 0 12.159-1.362 17.5-3.786zm10-279.5c0 15.164-12.337 27.5-27.5 27.5s-27.5-12.336-27.5-27.5v-17.5h55z"/></g><g fill="#fff"><path d="m293 50h-15v-15h15zm-30 0h-15v-15h15zm-30 0h-15v-15h15z"/><path d="m115.5 426h15v15h-15z"/><path d="m85.5 426h15v15h-15z"/></g></g></svg>