<svg id="Capa_1" enable-background="new 0 0 512.119 512.119" height="512" viewBox="0 0 512.119 512.119" width="512" xmlns="http://www.w3.org/2000/svg"><g><g><g><path d="m426.827 436.793h-321.455l-47.183 28.39v16.33c0 12.76 10.35 23.11 23.11 23.11h350c12.76 0 23.11-10.35 23.11-23.11v-16.33z" fill="#a6e7f0"/></g><path d="m454.41 145.192v319.99h-393.8-2.42v-319.99z" fill="#f9f7f8"/><g><path d="m427.6 7.502h-342.6c-14.81 0-26.81 12-26.81 26.8v27.11l25.082 14.459h358.203l12.935-14.459v-27.11c-.001-14.8-12.001-26.8-26.81-26.8z" fill="#a6e7f0"/></g><path d="m454.41 61.412v67.89h-396.22v-67.89h2.42z" fill="#f9f7f8"/><g><g id="XMLID_245_"><g><path d="m58.19 236.629c4.961-1.307 9.647-3.298 13.95-5.868 3.343-1.996 7.498-1.993 10.822.034 8.588 5.239 18.467 8.045 28.781 8.045 11.192 0 21.613-3.337 30.337-9.061 3.442-2.258 7.861-2.316 11.343-.121 9.033 5.694 19.55 8.753 30.536 8.753 11.312 0 21.856-3.271 30.708-8.892 3.467-2.202 7.877-2.192 11.324.043 8.88 5.757 19.235 8.85 30.068 8.85 10.948 0 21.162-3.19 29.768-8.687 3.465-2.213 7.872-2.23 11.334-.011 8.831 5.661 19.104 8.698 29.848 8.698 10.949 0 21.164-3.191 29.771-8.69 3.465-2.213 7.872-2.23 11.333-.012 8.835 5.663 19.108 8.701 29.846 8.701 10.808 0 20.902-3.11 29.439-8.478 3.429-2.156 7.775-2.2 11.191-.022 4.813 3.069 10.141 5.398 15.82 6.836v-91.556h-396.219z" fill="#efedef"/><path d="m147.651 135.192-45.841 1.814-25.536 12.155v34.21c0 9.8 3.97 18.66 10.39 25.08s15.28 10.39 25.08 10.39c19.59 0 35.48-15.88 35.48-35.47z" fill="#e5e1e5"/><path d="m215.67 141.382-52.348-.864-16.336 8.215.352 34.21c0 9.8 4.099 18.66 10.727 25.08s15.786 10.39 25.893 10.39c20.225 0 36.63-15.88 36.63-35.47v-34.21z" fill="#fe646f"/><path d="m284.461 139.499h-51.928l-11.943 9.233v34.21c0 9.8 3.97 18.66 10.39 25.08s15.28 10.39 25.08 10.39c19.59 0 35.47-15.88 35.47-35.47v-34.21z" fill="#e5e1e5"/><path d="m298.74 113.972-22.6-20.176-41.589-.15-16.541 6.64-18.277 44.906 18.277 3.534h73.521l14.479-5.672z" fill="#efedef"/><path d="m181.209 93.452-55.859-.21-20.106 6.998-30.848 37.244 4.294 11.248h70.95l20.687-11.248 21.338-34.798z" fill="#efedef"/><path d="m236.02 93.652-15.43 55.08h-73.28l33.9-55.28z" fill="#fd8087"/><path d="m502.409 149.072-.3-.34-21.864-10.279h-40.701l-6.115 10.279v2.31 31.9 1.19c0 18.93 15.35 34.28 34.29 34.28h2.38c18.93 0 34.28-15.35 34.28-34.28v-30.3c.001-1.79-.709-3.5-1.97-4.76z" fill="#fe646f"/><path d="m416.363 139.499-44.929-1.814-8.954 11.048v34.21c0 9.8 3.97 18.66 10.39 25.08 6.43 6.42 15.29 10.39 25.09 10.39 19.59 0 35.47-15.88 35.47-35.47v-34.21z" fill="#e5e1e5"/><path d="m422.381 109.063-34.101-14.861-55.86-.2-8.004 11.116 13.439 35.783 24.624 7.831h70.95l8.045-8.214z" fill="#efedef"/><path d="m454.41 94.442 47.7 54.29h-68.68l-45.15-54.53z" fill="#fd8087"/><path d="m349.451 134.852h-46.979l-10.943 13.88v34.21c0 9.8 3.97 18.66 10.39 25.08s15.3 10.39 25.09 10.39c19.59 0 35.47-15.88 35.47-35.47v-34.21z" fill="#fe646f"/><path d="m362.48 148.732h-70.95l-15.39-54.93 56.28.2z" fill="#fd8087"/><path d="m75.511 143.146-27.385-1.109-38.126 6.695-.29.34c-1.26 1.26-1.97 2.97-1.97 4.76v30.3c0 18.93 15.35 34.28 34.28 34.28h2.38c18.94 0 34.29-15.35 34.29-34.28v-35.4z" fill="#fe646f"/><path d="m128.589 93.254-49.899 55.478h-68.69l51.44-55.73z" fill="#fd8087"/></g></g><path d="m217.922 411.042h-96.916c-6.967 0-12.615-5.648-12.615-12.615v-85.625c0-6.967 5.648-12.615 12.615-12.615h96.916c6.967 0 12.615 5.648 12.615 12.615v85.625c0 6.967-5.648 12.615-12.615 12.615z" fill="#a6e7f0"/><path d="m335.832 329.912-61.869-6.735c-2.823-.307-5.205 2.075-4.898 4.898l6.735 61.869c.404 3.708 4.921 5.299 7.559 2.661l16.307-16.307 28.651 28.651c2.862 2.862 7.502 2.862 10.364 0l12.156-12.156c2.862-2.862 2.862-7.502 0-10.364l-28.651-28.651 16.307-16.307c2.638-2.638 1.048-7.155-2.661-7.559z" fill="#fd8087"/></g></g><g><path d="m507.916 143.979-46.011-52.367v-57.311c0-18.913-15.388-34.301-34.301-34.301h-11.118c-4.143 0-7.5 3.358-7.5 7.5s3.357 7.5 7.5 7.5h11.118c10.643 0 19.301 8.659 19.301 19.301v19.609h-381.211v-19.609c0-10.642 8.658-19.301 19.301-19.301h299.529c4.143 0 7.5-3.358 7.5-7.5s-3.357-7.5-7.5-7.5h-299.529c-18.913 0-34.301 15.388-34.301 34.301v55.91l-46.516 53.792c-2.543 2.658-3.939 6.134-3.939 9.825v30.301c0 23.041 18.745 41.785 41.785 41.785h2.379c14.36 0 27.049-7.283 34.573-18.347 7.78 11.082 20.647 18.347 35.185 18.347 14.717 0 27.726-7.44 35.475-18.752 7.749 11.312 20.757 18.752 35.475 18.752 14.717 0 27.725-7.44 35.474-18.752 7.749 11.312 20.757 18.752 35.475 18.752s27.726-7.44 35.475-18.752c7.749 11.312 20.757 18.752 35.475 18.752 14.717 0 27.725-7.44 35.474-18.752 7.749 11.312 20.757 18.752 35.475 18.752 14.539 0 27.408-7.262 35.188-18.344 7.525 11.063 20.212 18.344 34.571 18.344h2.379c23.04 0 41.785-18.745 41.785-41.785v-30.301c-.002-3.702-1.408-7.188-3.966-9.849zm-446.303-43.462 46.968.17s-36.024 40.178-36.252 40.542h-45.921zm67.066.242 39.199.142-24.609 40.328h-50.938zm56.733.206 40.544.147-12.013 40.118h-53.101zm56.185.203 30.105.109 11.409 39.952h-53.51zm57.115 40.061-11.393-39.896 40.58.147 23.949 39.749zm70.647 0-23.911-39.685 39.432.143 35.437 39.542zm70.94 0c-.226-.362-35.212-39.469-35.212-39.469l45.914.166 34.532 39.303zm6.606-72.319v18.001l-381.211-1.38v-16.621zm-375.717 115.219c0 14.77-12.016 26.785-26.785 26.785h-2.379c-14.77 0-26.785-12.016-26.785-26.785v-27.9h55.949zm42.974 26.785c-15.425 0-27.974-12.549-27.974-27.974v-26.711h55.948v26.711c0 15.425-12.549 27.974-27.974 27.974zm70.949 0c-15.425 0-27.975-12.549-27.975-27.974v-26.711h55.948v26.711c.001 15.425-12.548 27.974-27.973 27.974zm70.948 0c-15.425 0-27.975-12.549-27.975-27.974v-26.711h55.949v26.711c.001 15.425-12.549 27.974-27.974 27.974zm70.949 0c-15.425 0-27.974-12.549-27.974-27.974v-26.711h55.948v26.711c0 15.425-12.55 27.974-27.974 27.974zm70.949 0c-15.425 0-27.975-12.549-27.975-27.974v-26.711h55.949v26.711c0 15.425-12.549 27.974-27.974 27.974zm72.137 0h-2.379c-14.769 0-26.784-12.016-26.784-26.785v-27.9h55.948v27.9c.001 14.769-12.015 26.785-26.785 26.785z"/><path d="m93.863 26.644c-4.143 0-7.5 3.358-7.5 7.5s3.357 7.5 7.5 7.5h3.36c4.143 0 7.5-3.358 7.5-7.5s-3.357-7.5-7.5-7.5z"/><path d="m129.594 26.644c-4.143 0-7.5 3.358-7.5 7.5s3.357 7.5 7.5 7.5h3.36c4.143 0 7.5-3.358 7.5-7.5s-3.357-7.5-7.5-7.5z"/><path d="m165.326 26.644c-4.143 0-7.5 3.358-7.5 7.5s3.357 7.5 7.5 7.5h3.361c4.143 0 7.5-3.358 7.5-7.5s-3.357-7.5-7.5-7.5z"/><path d="m454.405 237.302c-4.143 0-7.5 3.358-7.5 7.5v212.882h-30.419c-4.143 0-7.5 3.358-7.5 7.5s3.357 7.5 7.5 7.5h30.419v8.828c0 8.605-7.001 15.606-15.605 15.606h-350c-8.604 0-15.605-7.001-15.605-15.606v-8.828h318.83c4.143 0 7.5-3.358 7.5-7.5s-3.357-7.5-7.5-7.5h-318.831v-212.882c0-4.142-3.357-7.5-7.5-7.5s-7.5 3.358-7.5 7.5v236.71c0 16.876 13.729 30.606 30.605 30.606h350c16.876 0 30.605-13.73 30.605-30.606v-236.71c.001-4.142-3.356-7.5-7.499-7.5z"/><path d="m108.391 376.379c-4.143 0-7.5 3.358-7.5 7.5v14.548c0 11.091 9.023 20.115 20.115 20.115h96.916c11.091 0 20.114-9.023 20.114-20.115v-85.625c0-11.091-9.023-20.115-20.114-20.115h-96.916c-11.092 0-20.115 9.023-20.115 20.115v39.115c0 4.142 3.357 7.5 7.5 7.5s7.5-3.358 7.5-7.5v-39.115c0-2.82 2.295-5.115 5.115-5.115h96.916c2.82 0 5.114 2.294 5.114 5.115v85.625c0 2.82-2.294 5.115-5.114 5.115h-96.916c-2.82 0-5.115-2.294-5.115-5.115v-14.548c0-4.142-3.357-7.5-7.5-7.5z"/><path d="m346.617 330.363c-1.54-4.375-5.361-7.405-9.973-7.907l-61.868-6.735c-3.609-.392-7.164.854-9.737 3.426-2.572 2.572-3.822 6.121-3.43 9.739l6.735 61.87c.503 4.611 3.533 8.432 7.908 9.972 4.377 1.541 9.131.459 12.411-2.82l11.003-11.004 23.349 23.349c2.801 2.8 6.524 4.343 10.484 4.343 3.961 0 7.685-1.542 10.484-4.343l12.157-12.156c5.78-5.781 5.78-15.188 0-20.97l-23.349-23.348 11.004-11.004c3.281-3.28 4.362-8.036 2.822-12.412zm-1.204 57.248-11.913 11.913-28.529-28.53c-1.407-1.407-3.314-2.197-5.304-2.197s-3.896.79-5.304 2.197l-11.797 11.797-5.634-51.747 51.747 5.633-11.797 11.797c-2.929 2.929-2.929 7.678 0 10.606z"/></g></g></svg>