<svg height="512pt" viewBox="0 0 512 512" width="512pt" xmlns="http://www.w3.org/2000/svg"><path d="m346.355469 7.5c-87.339844 0-158.140625 70.804688-158.140625 158.144531 0 33.269531 10.273437 64.136719 27.820312 89.609375l-63.246094 63.25 40.707032 40.707032 63.25-63.246094c25.46875 17.546875 56.339844 27.820312 89.609375 27.820312 87.339843 0 158.144531-70.804687 158.144531-158.144531s-70.804688-158.140625-158.144531-158.140625zm0 0" fill="#adb9c8"/><path d="m459.429688 165.644531c0 62.445313-50.625 113.070313-113.074219 113.070313-62.445313 0-113.070313-50.625-113.070313-113.070313 0-62.449219 50.625-113.074219 113.070313-113.074219 62.449219 0 113.074219 50.625 113.074219 113.074219zm0 0" fill="#dcf0fb"/><path d="m39.78125 504.5-32.28125-32.28125c0-10.15625 0-15.851562 0-26.003906l136.5-136.5 58.285156 58.285156-136.5 136.5c-10.152344 0-15.847656 0-26.003906 0zm0 0" fill="#61748b"/><path d="m182.789062 318.503906 63.246094-63.25c-17.546875-25.46875-27.820312-56.339844-27.820312-89.609375 0-82.28125 62.839844-149.875 143.140625-157.429687-4.9375-.464844-9.9375-.714844-15-.714844-87.339844 0-158.140625 70.804688-158.140625 158.144531 0 33.269531 10.273437 64.140625 27.820312 89.609375l-63.246094 63.25 40.707032 40.707032 15-15zm0 0" fill="#92a2b5"/><path d="m263.285156 165.644531c0-57.363281 42.714844-104.742187 98.074219-112.082031-4.910156-.648438-9.914063-.992188-15-.992188-62.449219 0-113.074219 50.625-113.074219 113.074219 0 62.445313 50.625 113.070313 113.074219 113.070313 5.085937 0 10.089844-.34375 15-.992188-55.359375-7.339844-98.074219-54.71875-98.074219-112.078125zm0 0" fill="#96d1f3"/><path d="m37.5 472.21875v-26.003906l121.5-121.5-15-15-136.5 136.5v26.003906l32.28125 32.28125h26.003906l2-2zm0 0" fill="#536275"/><path d="m123.519531 399.085938-10.605469-10.605469 10.605469-10.605469 10.605469 10.605469zm17.675781-17.675782-10.605468-10.605468 10.605468-10.609376 10.609376 10.609376zm0 0" fill="#fff"/><path d="m466.460938 154.984375c-5.40625-61.71875-57.222657-109.914063-120.101563-109.914063-66.480469 0-120.570313 54.085938-120.570313 120.570313 0 66.480469 54.089844 120.570313 120.570313 120.570313 62.949219 0 114.703125-48.257813 120.101563-109.917969l-14.941407-1.308594c-4.726562 53.957031-50.917969 96.226563-105.160156 96.226563-58.210937 0-105.570313-47.359376-105.570313-105.570313 0-58.214844 47.359376-105.570313 105.570313-105.570313 54.242187 0 100.433594 42.265626 105.160156 96.226563zm0 0"/><path d="m346.355469 0c-91.335938 0-165.640625 74.308594-165.640625 165.644531 0 31.628907 8.863281 62.140625 25.6875 88.636719l-39.472656 39.472656 10.605468 10.605469 48.21875-48.21875-3.542968-5.140625c-17.332032-25.164062-26.496094-54.679688-26.496094-85.355469 0-83.066406 67.578125-150.644531 150.640625-150.644531 83.066406 0 150.644531 67.578125 150.644531 150.644531 0 83.0625-67.578125 150.640625-150.644531 150.640625-30.675781 0-60.191407-9.164062-85.355469-26.496094l-5.140625-3.542968-48.21875 48.21875 10.605469 10.605468 39.472656-39.472656c26.496094 16.824219 57.007812 25.6875 88.636719 25.6875 91.335937 0 165.644531-74.304687 165.644531-165.640625 0-91.335937-74.308594-165.644531-165.644531-165.644531zm0 0"/><path d="m0 443.109375v32.214844l36.675781 36.675781h32.214844l144-144-68.890625-68.890625zm62.679688 53.890625h-19.789063l-27.890625-27.890625v-19.789063l129-129 47.679688 47.679688zm0 0"/><path d="m410.402344 229.6875c17.082031-17.082031 26.488281-39.828125 26.488281-64.042969 0-24.21875-9.40625-46.960937-26.488281-64.042969l-10.605469 10.605469c14.246094 14.246094 22.09375 33.226563 22.09375 53.4375 0 20.210938-7.847656 39.1875-22.09375 53.4375zm0 0"/></svg>