<svg height="512pt" viewBox="-68 0 512 512.00048" width="512pt" xmlns="http://www.w3.org/2000/svg"><path d="m330.359375 59.671875-46.070313-26.601563c-59.253906-34.207031-132.257812-34.207031-191.511718 0l-46.070313 26.601563 2.300781 68.707031 62.386719-36.019531c47.734375-27.5625 106.542969-27.5625 154.277344 0l62.386719 36.019531zm0 0" fill="#7397da"/><path d="m83.820312 38.242188-37.113281 21.429687 2.300781 68.707031 39.003907-22.523437c-8.644531-18.355469-16.460938-45.171875-4.191407-67.613281zm0 0" fill="#6988c4"/><path d="m293.242188 38.242188 37.117187 21.429687-2.300781 68.707031-39.007813-22.523437c8.648438-18.355469 16.464844-45.171875 4.191407-67.613281zm0 0" fill="#6988c4"/><path d="m83.824219 38.242188-37.117188 21.429687c-37.519531 21.660156-50.375 69.636719-28.714843 107.15625l115.390624 199.863281 52.527344-30.328125-124.289062-215.269531c-16.746094-29.007812-6.808594-66.101562 22.203125-82.851562zm0 0" fill="#80bbe6"/><path d="m293.242188 38.242188 37.117187 21.429687c37.519531 21.660156 50.375 69.636719 28.714844 107.15625l-115.390625 199.863281-52.527344-30.328125 124.289062-215.269531c16.746094-29.007812 6.808594-66.101562-22.203124-82.851562zm0 0" fill="#80bbe6"/><path d="m320.988281 372.042969c0 73.152343-59.300781 132.457031-132.453125 132.457031-73.15625 0-132.457031-59.304688-132.457031-132.457031 0-73.152344 59.300781-132.457031 132.457031-132.457031 73.152344 0 132.453125 59.304687 132.453125 132.457031zm0 0" fill="#ddaf89"/><path d="m75.46875 266.378906 57.914062 100.3125 52.527344-30.328125-60.917968-105.507812c-18.800782 8.492187-35.605469 20.640625-49.523438 35.523437zm0 0" fill="#76acd4"/><path d="m252.074219 230.851562-60.914063 105.511719 52.523438 30.324219 57.914062-100.308594c-13.917968-14.882812-30.722656-27.03125-49.523437-35.527344zm0 0" fill="#76acd4"/><path d="m320.988281 372.042969c0 73.152343-59.300781 132.457031-132.453125 132.457031-73.15625 0-132.457031-59.304688-132.457031-132.457031 0-73.152344 59.300781-132.457031 132.457031-132.457031 73.152344 0 132.453125 59.304687 132.453125 132.457031zm0 0" fill="#ddaf89"/><path d="m236.097656 446.386719c-67.328125 0-121.910156-54.578125-121.910156-121.90625 0-28.753907 9.960938-55.175781 26.613281-76.023438-49.566406 19.15625-84.722656 67.261719-84.722656 123.585938 0 73.152343 59.300781 132.453125 132.457031 132.453125 56.320313 0 104.425782-35.15625 123.582032-84.71875-20.84375 16.648437-47.265626 26.609375-76.019532 26.609375zm0 0" fill="#c9a07d"/><path d="m290.996094 372.042969c0 56.585937-45.875 102.460937-102.460938 102.460937-56.589844 0-102.464844-45.875-102.464844-102.460937 0-56.585938 45.875-102.460938 102.464844-102.460938 56.585938 0 102.460938 45.875 102.460938 102.460938zm0 0" fill="#f8e47c"/><path d="m236.097656 446.386719c-67.328125 0-121.910156-54.578125-121.910156-121.90625 0-8.820313.945312-17.414063 2.726562-25.699219-19.027343 18.601562-30.84375 44.550781-30.84375 73.261719 0 56.589843 45.875 102.460937 102.460938 102.460937 28.714844 0 54.660156-11.816406 73.265625-30.84375-8.285156 1.78125-16.882813 2.726563-25.699219 2.726563zm0 0" fill="#edd35f"/><path d="m185.304688 415.558594-25.230469 8.972656c-6.382813 2.269531-13.050781-2.578125-12.863281-9.347656l.734374-26.765625c.0625-2.21875-.644531-4.386719-1.996093-6.144531l-16.328125-21.222657c-4.128906-5.367187-1.582032-13.207031 4.914062-15.121093l25.683594-7.570313c2.128906-.628906 3.972656-1.96875 5.226562-3.796875l15.136719-22.089844c3.828125-5.585937 12.070313-5.585937 15.902344 0l15.136719 22.089844c1.253906 1.828125 3.097656 3.167969 5.226562 3.796875l25.683594 7.570313c6.496094 1.914062 9.042969 9.753906 4.914062 15.121093l-16.332031 21.222657c-1.351562 1.757812-2.054687 3.925781-1.992187 6.144531l.734375 26.765625c.1875 6.769531-6.484375 11.617187-12.863281 9.347656l-25.230469-8.972656c-2.089844-.742188-4.367188-.742188-6.457031 0zm0 0" fill="#ddaf89"/><path d="m147.40625 408.109375-.195312 7.074219c-.1875 6.769531 6.484374 11.617187 12.863281 9.347656l4.25-1.511719c-6.09375-4.445312-11.757813-9.4375-16.917969-14.910156zm0 0" fill="#c9a07d"/><path d="m256.105469 349.878906c-1.746094-5.378906-6.027344-9.546875-11.453125-11.144531l-25.683594-7.570313c-.472656-.140624-.882812-.4375-1.160156-.84375l-15.140625-22.085937c-3.195313-4.667969-8.480469-7.453125-14.136719-7.453125s-10.941406 2.785156-14.136719 7.449219l-15.136719 22.089843c-.277343.40625-.691406.703126-1.160156.84375l-25.6875 7.570313c-5.421875 1.597656-9.703125 5.765625-11.453125 11.144531-1.746093 5.378906-.730469 11.265625 2.71875 15.746094l16.328125 21.222656c.300782.390625.457032.871094.445313 1.363282l-.738281 26.769531c-.15625 5.652343 2.484374 11.011719 7.058593 14.335937 4.574219 3.324219 10.488281 4.179688 15.816407 2.28125l25.230468-8.972656c.460938-.164062.96875-.164062 1.433594 0l25.230469 8.972656c1.871093.664063 3.808593.992188 5.742187.992188 3.570313 0 7.105469-1.117188 10.074219-3.273438 4.574219-3.324218 7.210937-8.683594 7.058594-14.335937l-.738281-26.773438c-.011719-.488281.144531-.96875.441406-1.359375l16.332031-21.222656c3.449219-4.480469 4.464844-10.367188 2.714844-15.746094zm-14.605469 6.597656-16.332031 21.222657c-2.394531 3.117187-3.65625 6.996093-3.546875 10.921875l.734375 26.769531c.027343.980469-.539063 1.539063-.878907 1.789063-.339843.246093-1.046874.609374-1.972656.285156l-25.226562-8.972656c-1.851563-.660157-3.796875-.988282-5.746094-.988282-1.945312 0-3.890625.328125-5.742188.988282l-25.230468 8.972656c-.921875.324218-1.628906-.039063-1.972656-.285156-.339844-.25-.902344-.808594-.878907-1.789063l.738281-26.765625c.109376-3.929688-1.152343-7.808594-3.550781-10.925781l-16.328125-21.222657c-.597656-.773437-.46875-1.5625-.339844-1.960937.132813-.402344.488282-1.113281 1.429688-1.390625l25.6875-7.574219c3.769531-1.109375 7.066406-3.507812 9.289062-6.746093l15.140626-22.089844c.550781-.808594 1.339843-.929688 1.761718-.929688.417969 0 1.207032.121094 1.761719.929688l15.136719 22.089844c2.222656 3.238281 5.523437 5.636718 9.292968 6.75l25.683594 7.570312c.941406.277344 1.300782.988281 1.429688 1.390625.128906.398437.257812 1.1875-.339844 1.960937zm132.65625-251.113281c-5.941406-22.175781-20.164062-40.707031-40.046875-52.1875l-37.070313-21.402343c-.015624-.011719-.03125-.019532-.042968-.027344l-8.957032-5.167969c-61.378906-35.4375-137.632812-35.4375-199.011718 0l-8.957032 5.167969c-.011718.007812-.023437.015625-.035156.023437l-37.078125 21.40625c-41.042969 23.695313-55.15625 76.363281-31.460937 117.40625l5.46875 9.472657c2.074218 3.585937 6.660156 4.816406 10.25 2.746093 3.585937-2.074219 4.816406-6.660156 2.742187-10.25l-5.46875-9.46875c-19.558593-33.878906-7.90625-77.351562 25.96875-96.914062l.160157-.089844c-.886719 2.289063-1.652344 4.644531-2.300782 7.050781-4.710937 17.585938-2.292968 35.949219 6.8125 51.714844l70.539063 122.183594c-13.816407 6.972656-26.320313 16.171875-37.050781 27.121094l-41.3125-71.554688c-2.070313-3.585938-6.660157-4.8125-10.246094-2.746094-3.589844 2.074219-4.816406 6.660156-2.746094 10.25l43.863281 75.972656c-18.539062 23.738282-29.597656 53.589844-29.597656 85.972657 0 77.171875 62.785156 139.957031 139.957031 139.957031 36.328125 0 70.761719-13.855469 96.949219-39.019531 2.988281-2.871094 3.082031-7.621094.214844-10.605469-2.871094-2.988281-7.621094-3.085938-10.605469-.214844-23.382812 22.464844-54.125 34.835938-86.558594 34.835938-68.902344 0-124.957031-56.050782-124.957031-124.953125 0-68.898438 56.054687-124.953125 124.957031-124.953125 68.898438 0 124.953125 56.054687 124.953125 124.953125 0 22.726562-6.160156 44.96875-17.808593 64.328125-2.136719 3.550781-.992188 8.160156 2.558593 10.296875s8.160157.988281 10.296875-2.558594c13.054688-21.695313 19.953125-46.617187 19.953125-72.066406 0-32.386719-11.058593-62.234375-29.597656-85.976563l66.679687-115.484375c11.476563-19.882812 14.527344-43.042969 8.585938-65.21875zm-311.347656-28.351562c3.675781-13.710938 12.46875-25.175781 24.765625-32.273438l8.953125-5.171875c56.75-32.765625 127.261718-32.765625 184.011718 0l8.957032 5.171875.042968.027344c12.269532 7.097656 21.046876 18.546875 24.71875 32.246094 3.019532 11.265625 2.277344 22.941406-2.015624 33.570312l-42.816407-24.71875c-49.894531-28.808593-111.886719-28.808593-161.78125 0l-42.816406 24.71875c-4.296875-10.625-5.039063-22.300781-2.019531-33.570312zm125.726562 155.074219c-17.25 0-33.773437 3.144531-49.046875 8.878906l-67.621093-117.125 43.277343-24.984375c45.269531-26.132813 101.507813-26.132813 146.777344 0l43.273437 24.984375-67.621093 117.125c-15.269531-5.734375-31.792969-8.878906-49.039063-8.878906zm164.042969-69.007813-64.128906 111.070313c-10.730469-10.949219-23.234375-20.148438-37.050781-27.125l70.542968-122.179688c9.101563-15.765625 11.519532-34.132812 6.808594-51.714844-.644531-2.40625-1.414062-4.761718-2.300781-7.054687l.160156.09375c16.410156 9.476562 28.152344 24.773437 33.054687 43.078125 4.90625 18.304687 2.386719 37.421875-7.085937 53.832031zm-164.042969 99.003906c-60.636718 0-109.964844 49.328125-109.964844 109.960938 0 60.632812 49.328126 109.960937 109.964844 109.960937 60.632813 0 109.960938-49.328125 109.960938-109.960937 0-60.632813-49.328125-109.960938-109.960938-109.960938zm0 204.921875c-52.363281 0-94.960937-42.601562-94.960937-94.960937s42.597656-94.957031 94.960937-94.957031c52.359375 0 94.957032 42.597656 94.957032 94.957031s-42.597657 94.960937-94.957032 94.960937zm0 0"/></svg>