<svg id="Capa_1" enable-background="new 0 0 511.999 511.999" height="512" viewBox="0 0 511.999 511.999" width="512" xmlns="http://www.w3.org/2000/svg"><g><g><path d="m401.747 24.218-.504.312c-2.498 1.545-5.581 1.862-8.4.88-21.15-7.367-48.003-.648-67.618 18.967-20.298 20.298-26.786 48.348-18.145 69.808.925 2.297 1.407 4.739 1.433 7.197l.07 6.574c.062 5.8 4.814 10.552 10.613 10.613l6.574.07c2.458.026 4.9.508 7.197 1.433 21.459 8.641 49.509 2.153 69.808-18.145 19.615-19.615 26.334-46.469 18.967-67.619-.982-2.819-.665-5.902.88-8.4l.312-.504c2.625-4.244 1.934-9.801-1.667-13.402l-6.118-6.118c-3.601-3.6-9.158-4.291-13.402-1.666z" fill="#f7e782"/><path d="m385.149 25.885 6.118 6.118c3.601 3.601 4.292 9.158 1.667 13.402l-.312.504c-1.545 2.498-1.862 5.581-.88 8.4 7.367 21.15.648 48.003-18.967 67.619-10.156 10.156-22.252 16.854-34.492 19.93 20.62 5.709 45.83-1.269 64.492-19.93 19.615-19.615 26.334-46.469 18.967-67.619-.982-2.819-.665-5.902.88-8.4l.312-.504c2.625-4.244 1.934-9.801-1.667-13.402l-6.118-6.118c-3.601-3.601-9.158-4.292-13.402-1.667l-.504.312c-2.498 1.545-5.581 1.862-8.4.88-4.336-1.51-8.911-2.427-13.614-2.761 0 0 4.268 1.584 5.92 3.236z" fill="#f4dd46"/><g><g><path d="m287.557 42.876c-2.1 0-4.188-.877-5.671-2.588-2.713-3.13-2.375-7.867.755-10.58 3.098-2.685 5.678-6.048 7.464-9.728 1.898-3.912 2.953-8.285 3.049-12.647.091-4.141 3.533-7.391 7.664-7.332 4.141.091 7.424 3.522 7.333 7.664-.144 6.502-1.717 13.025-4.55 18.864-2.703 5.57-6.449 10.453-11.135 14.515-1.419 1.229-3.168 1.832-4.909 1.832z" fill="#7dbf3a"/></g><path d="m296.885 129.765c-15.729 18.605-51.512 46.094-79.949 32.304-28.547-13.843-31.556-60.489-20.581-90.345 14.012-38.117 56.248-63.356 72.839-54.772 6.409 3.316 5.895 10.077 16.633 17.428 12.92 8.844 21.549 4.453 28.335 9.915 14.283 11.499 7.442 56.232-17.277 85.47z" fill="#b3e59f"/><path d="m314.162 44.295c-6.785-5.463-15.414-1.071-28.335-9.915-10.738-7.35-10.224-14.112-16.633-17.428-6.11-3.161-15.703-1.722-26.079 3.246 2.983 3.636 4.773 8.747 12.712 14.182 12.92 8.844 21.549 4.453 28.335 9.915 14.283 11.499 7.441 56.232-17.277 85.47-10.026 11.858-28.198 27.323-47.423 33.411 27.998 11.071 62.156-15.353 77.423-33.411 24.719-29.238 31.56-73.971 17.277-85.47z" fill="#95d6a4"/></g><g><g><circle cx="142.787" cy="81.574" fill="#e28086" r="60.383"/><path d="m142.787 21.19c-3.948 0-7.803.391-11.539 1.114 27.827 5.387 48.844 29.868 48.844 59.269s-21.017 53.882-48.844 59.269c3.737.723 7.592 1.114 11.539 1.114 33.349 0 60.383-27.035 60.383-60.383s-27.034-60.383-60.383-60.383z" fill="#dd636e"/><g><path d="m150.879 63.373c-3.21 0-6.177-2.074-7.164-5.305-2.71-8.876-3.85-27.866 9.074-42.738 16.321-18.782 40.359-15.062 41.377-14.896 4.087.675 6.854 4.534 6.179 8.621-.674 4.088-4.536 6.847-8.621 6.18-.676-.11-16.775-2.538-27.614 9.935-10.767 12.39-6.247 27.866-6.05 28.519 1.2 3.962-1.034 8.153-4.994 9.357-.727.221-1.463.327-2.187.327z" fill="#b3e59f"/></g><g><path d="m150.972 63.38c-1.207 0-2.458-.081-3.751-.262-9.812-1.37-15.727-7.529-17.815-10.114-2.603-3.223-2.101-7.944 1.121-10.547 3.223-2.603 7.945-2.102 10.547 1.121.755.936 3.58 4.036 8.221 4.685 5.172.719 9.068-2.13 9.797-2.709 3.243-2.578 7.961-2.037 10.538 1.204 2.578 3.243 2.038 7.961-1.204 10.538-1.945 1.546-8.433 6.084-17.454 6.084z" fill="#dd636e"/></g></g></g><path d="" style="fill:none;stroke:#000;stroke-width:15;stroke-linecap:round;stroke-linejoin:round;stroke-miterlimit:10"/><path d="m84.54 108.533c4.335 1.891 9.261 1.891 13.596 0l18.492-8.068c4.335-1.891 9.262-1.891 13.597 0l18.487 8.067c4.335 1.892 9.262 1.892 13.598 0l18.488-8.067c4.335-1.892 9.262-1.892 13.598 0l18.486 8.066c4.335 1.892 9.263 1.892 13.598 0l18.485-8.066c4.336-1.892 9.263-1.892 13.599 0l18.48 8.065c4.336 1.892 9.264 1.892 13.6 0l18.479-8.065c4.336-1.892 9.263-1.892 13.599 0l18.485 8.066c4.335 1.892 9.263 1.892 13.598 0l18.484-8.066c4.335-1.892 9.263-1.892 13.598 0l18.483 8.065c4.336 1.892 9.263 1.892 13.599 0l16.881-7.367c3.964-1.73 8.4 1.175 8.4 5.499v367.835c0 16.568-13.432 30-30 30h-325c-16.568 0-30-13.432-30-30v-367.833c0-4.325 4.436-7.229 8.4-5.499l16.881 7.367c4.336 1.892 9.263 1.892 13.599 0l18.483-8.065c4.335-1.892 9.263-1.892 13.599 0l18.484 8.066c4.335 1.892 9.263 1.892 13.598 0l18.485-8.066c4.336-1.892 9.263-1.892 13.599 0l18.479 8.065c4.336 1.892 9.264 1.892 13.6 0l18.48-8.065c4.335-1.892 9.263-1.892 13.599 0l18.485 8.066c4.335 1.892 9.263 1.892 13.598 0l18.486-8.066c4.335-1.892 9.263-1.892 13.598 0l18.488 8.067c4.335 1.892 9.262 1.892 13.598 0l18.487-8.067c4.335-1.892 9.262-1.892 13.597 0l18.492 8.068c4.335 1.891 9.262 1.891 13.596 0" fill="#efe7e4"/><g><path d="m414.249 108.533v1.275c1.608-.199 3.196-.614 4.71-1.275z" fill="#efe8e4"/><path d="m435.85 101.165-16.881 7.367c-1.517.662-3.108 1.078-4.719 1.277v58.314c0 177.491-143.885 321.376-321.376 321.376h-29.601c5.188 8.964 14.874 15 25.977 15h325c16.568 0 30-13.432 30-30v-367.835c-.001-4.325-4.437-7.229-8.4-5.499z" fill="#dad0cb"/></g><g><path d="m298.741 327.523c13.507-34.867-6.817-84.038-55.02-111.74-2.889-1.66-6.53.302-6.694 3.63-.313 6.341-1.5 13.946-4.678 21.935-4.782 12.021-10.637 16.276-17.101 26.154-8.301 12.686-15.803 31.885-14.418 47.614 2.994 34.012 47.62 52.95 50.967 54.32 9.22-3.511 36.655-15.352 46.944-41.913z" fill="#b3e59f"/><path d="m279.587 295.46c-3.16-2.677-7.893-2.287-10.571.873l-3.114 3.675c-1.116-9.924-3.077-19.774-5.895-29.495-1.153-3.979-5.312-6.27-9.292-5.116-3.979 1.153-6.269 5.313-5.116 9.292 3.97 13.695 6.097 27.669 6.368 41.734-4.606-5.287-9.782-10.077-15.447-14.26-3.333-2.462-8.028-1.755-10.489 1.578-2.46 3.332-1.754 8.028 1.578 10.489 5.734 4.234 10.884 9.193 15.306 14.738 2.89 3.623 5.456 7.523 7.692 11.596-2.035 15.423-6.292 30.447-12.696 44.729-1.694 3.78-.004 8.217 3.775 9.912 3.701 1.66 8.197.05 9.912-3.775 9.873-22.017 14.91-45.474 15.372-69.483l13.488-15.914c2.679-3.162 2.289-7.895-.871-10.573z" fill="#7dbf3a"/></g></g><path d="m445.643 95.368c-3.823-2.503-8.606-2.904-12.793-1.077l-5.095 2.223c5.398-14.997 5.903-30.799 1.068-44.669-.241-.693-.175-1.423.17-1.983 4.572-7.424 3.767-16.983-2.425-23.17l-6.116-6.106c-6.23-6.235-15.786-7.003-23.175-2.423-.548.34-1.286.4-1.97.165-24.616-8.578-54.208-.434-75.39 20.748-.053.053-.104.109-.157.162-4.59-4.177-10.19-5.172-14.913-5.843-1.604-.228-3.177-.455-4.784-.81 1.326-1.914 2.508-3.934 3.537-6.054 2.833-5.839 4.407-12.362 4.55-18.864.092-4.142-3.191-7.573-7.333-7.664-4.131-.059-7.573 3.191-7.664 7.332-.096 4.362-1.151 8.735-3.049 12.647-.943 1.943-2.112 3.793-3.458 5.506-2.281-2.11-3.615-4.12-4.998-6.212-2.035-3.078-4.341-6.566-9.014-8.986-6.321-3.271-14.763-3.35-24.413-.229-14.676 4.746-33.541 17.619-47.108 36.848-7.123-11.929-17.795-21.506-30.554-27.252 9.836-6.134 20.613-4.509 21.164-4.419 4.085.667 7.946-2.092 8.621-6.18.674-4.087-2.092-7.946-6.179-8.621-1.003-.164-24.359-3.764-40.658 14.109-41.145-6.574-78.609 25.473-78.609 67.026 0 5.175.604 10.33 1.766 15.347l-6.015-2.625c-4.188-1.829-8.971-1.428-12.794 1.076-3.824 2.503-6.106 6.726-6.106 11.296v367.835c0 20.678 16.822 37.5 37.5 37.5h52.953c4.142 0 7.5-3.357 7.5-7.5s-3.358-7.5-7.5-7.5h-52.953c-12.407 0-22.5-10.094-22.5-22.5v-365.546l14.781 6.45c6.204 2.709 13.374 2.717 19.605.002l18.491-8.067c1.204-.526 2.497-.788 3.789-.789 1.295.001 2.589.264 3.795.789l18.485 8.066c3.114 1.359 6.457 2.038 9.8 2.038 3.348.002 6.696-.677 9.814-2.038l18.487-8.066c1.205-.525 2.499-.788 3.792-.789 1.292.002 2.584.264 3.788.79l18.479 8.064c3.121 1.362 6.471 2.041 9.822 2.039 3.344 0 6.687-.679 9.801-2.038l18.484-8.066c1.203-.525 2.495-.787 3.787-.789 1.292.002 2.583.265 3.786.789l18.485 8.066c3.114 1.359 6.458 2.038 9.801 2.038 3.35.003 6.701-.676 9.821-2.039l18.48-8.064c1.203-.526 2.495-.789 3.787-.79 1.294.001 2.587.264 3.792.789l18.488 8.066c3.116 1.359 6.461 2.039 9.806 2.037 3.345.001 6.691-.678 9.808-2.037l18.483-8.066c1.506-.656 3.15-.903 4.759-.741.966.099 1.92.346 2.824.74l18.492 8.068c6.222 2.702 13.402 2.719 19.604-.002l14.782-6.45v37.119c0 4.143 3.358 7.5 7.5 7.5s7.5-3.357 7.5-7.5v-39.41c.002-4.57-2.28-8.793-6.104-11.296zm-251.126-2.813c-1.857-.545-3.765-.873-5.684-.969-3.757-.192-7.551.477-11.055 2.006l-18.485 8.066c-1.202.525-2.493.787-3.784.789-1.296 0-2.591-.263-3.798-.789l-18.487-8.066c-2.728-1.19-5.632-1.858-8.557-2.005-3.757-.192-7.551.476-11.055 2.005-1.019.445-18.572 8.183-19.57 8.455-2.706-6.445-4.143-13.433-4.143-20.478 0-29.977 25.052-54.014 54.973-52.827-2.009 5.458-2.809 10.921-2.885 15.833-.423-.415-.73-.771-.913-.998-2.603-3.223-7.325-3.725-10.547-1.121-3.222 2.603-3.724 7.324-1.122 10.547 2.088 2.585 8.003 8.744 17.815 10.114 1.293.181 2.544.262 3.751.262 9.021 0 15.509-4.538 17.454-6.084 3.242-2.577 3.782-7.295 1.204-10.538-2.577-3.241-7.295-3.782-10.538-1.204-.276.219-1.008.764-2.09 1.318-.216-4.17.235-9.753 2.911-15.32 20.777 7.133 35.756 26.853 35.756 50.018.001 3.721-.392 7.393-1.151 10.986zm114.691-.047c-1.052.298-2.092.643-3.103 1.084l-18.486 8.066c-1.225.534-2.542.795-3.857.787-1.269-.011-2.536-.271-3.719-.788l-18.479-8.064c-3.118-1.361-6.466-2.04-9.814-2.038-3.348-.002-6.695.677-9.813 2.038l-18.481 8.064c-1.202.525-2.492.788-3.782.79-1.294-.001-2.587-.264-3.792-.789l-7.345-3.205c1.407-5.494 2.133-11.146 2.133-16.884 0-6.185-.838-12.175-2.396-17.872 11.467-20.832 30.878-34.941 44.564-39.367 5.51-1.781 10.333-2.051 12.903-.722 1.113.576 1.742 1.434 3.396 3.937 2.292 3.466 5.43 8.214 12.458 13.022 8.614 5.895 15.854 6.924 21.141 7.676 5.673.807 7.465 1.155 9.393 5.875.018.043.031.088.049.13 1.162 2.94 1.826 6.975 1.856 11.666.051 7.96-1.651 17.273-4.826 26.594zm99.607 9.31c-.148-.056-.3-.097-.446-.161l-18.483-8.065c-3.116-1.359-6.463-2.039-9.809-2.037-3.344 0-6.688.679-9.803 2.037l-18.487 8.066c-1.202.525-2.493.787-3.783.789-1.296 0-2.591-.263-3.798-.789-1.106-.482-18.476-8.071-19.477-8.465 2.849-9.522 4.359-19.004 4.304-27.376-.031-4.77-.555-9.087-1.548-12.9 16.511-18.898 42.309-27.598 62.894-20.423 5.088 1.773 10.813.897 15.324-1.901 1.267-.786 3.01-.534 4.147.604l6.117 6.106c1.131 1.131 1.377 2.88.589 4.154-2.826 4.57-3.674 10.223-1.898 15.32 4.811 13.805 2.593 30.344-5.843 45.041zm35.434 71.756c-4.142 0-7.5 3.357-7.5 7.5v293.425c0 12.406-10.093 22.5-22.5 22.5h-237.046c-4.142 0-7.5 3.357-7.5 7.5s3.358 7.5 7.5 7.5h237.047c20.678 0 37.5-16.822 37.5-37.5v-293.425c-.001-4.143-3.358-7.5-7.501-7.5zm-202.561 221.631c3.701 1.659 8.196.052 9.912-3.775 2.408-5.371 4.532-10.839 6.383-16.387 31.418-13.08 43.383-33.531 47.752-44.808 7.476-19.299 5.853-42.186-4.57-64.446-10.592-22.622-29.665-42.688-53.705-56.504-3.646-2.096-8.026-2.143-11.717-.129-3.679 2.01-6 5.706-6.206 9.89-.64 12.962-6.111 25.399-13.685 35.001-2.087 2.646-4.454 5.646-6.879 9.353-8.224 12.567-17.247 33.826-15.614 52.379 2.761 31.36 34.95 50.637 49.279 57.718-1.421 3.981-2.987 7.919-4.726 11.797-1.694 3.778-.003 8.217 3.776 9.911zm-33.386-80.744c-1.214-13.785 5.767-31.454 13.223-42.85 2.062-3.151 4.117-5.757 6.104-8.275 8.279-10.492 14.872-24.107 16.488-38.57 19.437 12.14 34.772 28.822 43.463 47.383 8.671 18.519 10.151 37.223 4.167 52.668-2.958 7.634-10.39 20.569-28.546 30.999 2.31-11.183 3.626-22.494 3.77-33.867l13.488-15.914c2.678-3.16 2.288-7.893-.873-10.571-3.16-2.677-7.893-2.286-10.571.872l-3.115 3.675c-1.115-9.923-3.077-19.774-5.895-29.495-1.153-3.979-5.315-6.271-9.291-5.115-3.979 1.152-6.269 5.312-5.116 9.291 3.969 13.696 6.096 27.67 6.368 41.734-4.607-5.288-9.783-10.078-15.447-14.26-3.333-2.461-8.029-1.756-10.489 1.578-2.46 3.332-1.754 8.027 1.578 10.488 5.732 4.233 10.882 9.192 15.306 14.738 2.887 3.62 5.454 7.52 7.692 11.597-.816 6.186-2.007 12.304-3.533 18.34-12.65-6.613-36.8-22.057-38.771-44.446z"/></g></svg>